<?xml version="1.0" encoding="UTF-8"?>
<!DOCTYPE svg PUBLIC "-//W3C//DTD SVG 1.1//EN" "http://www.w3.org/Graphics/SVG/1.1/DTD/svg11.dtd">
<!-- Creator: CorelDRAW 2021.5 -->
<svg xmlns="http://www.w3.org/2000/svg" xml:space="preserve" width="252.707mm" height="152.57mm" version="1.1" style="shape-rendering:geometricPrecision; text-rendering:geometricPrecision; image-rendering:optimizeQuality; fill-rule:evenodd; clip-rule:evenodd"
viewBox="0 0 25269.68 15256.34"
 xmlns:xlink="http://www.w3.org/1999/xlink"
 xmlns:xodm="http://www.corel.com/coreldraw/odm/2003">
 <defs>
  <style type="text/css">
   <![CDATA[
    .fil0 {fill:#FEFEFE}
    .fil1 {fill:#2FC18C}
    .fil2 {fill:#373435;fill-rule:nonzero}
    .fil3 {fill:#ED3237;fill-rule:nonzero}
   ]]>
  </style>
 </defs>
 <g id="Camada_x0020_1">
  <metadata id="CorelCorpID_0Corel-Layer"/>
  <rect class="fil0" width="25269.68" height="15256.34"/>
  <g id="_2361960576016">
   <path class="fil1" d="M6602.56 9437.57l3020.4 0 -1491.25 -3599.6 -1529.16 3599.6zm-2275.73 -6629.58c2838.38,-2428.39 6795.85,-2460.81 8839.25,-72.43 1764.56,2062.46 1524.47,5255.5 -401.55,7652.35l-4427.12 -9150.93 -173.21 0 -5158.09 10425.69c-40.15,-43.61 -79.89,-87.78 -118.7,-133.13 -2043.39,-2388.38 -1398.94,-6293.17 1439.43,-8721.55zm6463.42 9340.02c-1827.93,1154.14 -3943.93,1441.9 -5689.64,857.83l706.25 -1587.14 4665.93 0 317.46 729.31z"/>
   <path class="fil1" d="M12764.52 10387.93l1307.87 2703.36 -2871.54 0 -410.6 -943.28c322.26,-203.46 635.66,-433.57 936.41,-690.87 387.33,-331.39 733.48,-690.44 1037.87,-1069.21z"/>
   <path class="fil2" d="M1808.41 4902.06l-361.48 -198.52 -71.59 130.88 -236.06 -129.25 71.6 -130.88 -270.34 -148.2 132.83 -343.81 313.19 171.82 116.49 -212.69 236.05 129.25 -116.48 212.68 382.91 210.13c81.02,44.5 146.02,65.71 194.25,63.63 48.61,-1.69 104.56,-24.78 168.61,-68.53l-170.1 369.57c-45.82,33.19 -95.17,46.94 -147.3,41.64 -52.13,-5.3 -133.11,-37.75 -242.58,-97.73z"/>
   <path id="_1" class="fil2" d="M2625.57 4193.08l-196.46 300.22 -858.4 -560.94 182.63 -279.11 153.94 92.57c-38.29,-74.39 -55.93,-143.48 -53.31,-207.68 2.62,-64.59 26.62,-130.89 71.6,-200.07l15.77 -23.85 321.31 209.92 -20.75 31.66 -21.92 33.62c-61.13,93.81 -91.71,163.66 -91.75,209.95 0.35,46.28 41.17,95.76 122.47,148.81l374.86 244.9z"/>
   <path id="_2" class="fil2" d="M1725.58 3051.64c-42.52,-34.55 -66.69,-78.3 -72.51,-131.62 -5.43,-53.34 8.94,-101.07 43.11,-143.58 34.55,-42.91 78.3,-67.08 131.23,-72.52 52.56,-5.82 100.67,8.94 143.58,43.89 42.52,34.17 67.08,78.3 73.28,132.02 6.2,53.72 -7.78,101.85 -41.94,143.98 -33.38,41.36 -77.52,64.75 -132,70.17 -54.5,5.41 -103.01,-8.57 -144.75,-42.34zm1331.89 592.83l-226.96 280.65 -799.02 -645.55 188.29 -311.66 837.68 676.56z"/>
   <path id="_3" class="fil2" d="M3136.4 3154.29c22.45,-14.17 41.03,-26.38 55.34,-37.38 14.3,-10.61 26.28,-21.59 36.31,-31.78 47.45,-50.93 66.43,-112.53 56.93,-185.57 -9.51,-73.05 -45.79,-139.28 -109.66,-199.08 -57.19,-53.63 -116.94,-83.12 -178.8,-87.71 -61.49,-4.59 -113.46,15.65 -155.88,61.09 -11.97,12.54 -23.11,30.92 -33.43,54.71 -10.32,23.81 -20.2,53.84 -28.88,89.69l358.07 336.04zm-36.18 456.51l-1221.12 -1145.06 208.95 -294.48 504.98 473.77c14.01,-49.51 31.18,-93.2 51.49,-132.24 20.32,-38.67 43.8,-72.3 70.81,-100.89 95.29,-101.87 208.49,-150.18 339.99,-145.73 131.5,4.82 255.24,61.84 371.59,171.01 122.61,114.98 186.62,245.56 192.02,390.98 4.99,145.42 -49.99,279.26 -164.57,401.48 -14.27,15.67 -31.65,32.13 -51.74,49.79 -20.09,17.66 -43.28,36.9 -69.97,57.72l-110.67 74.36 -121.76 199.29z"/>
   <path id="_4" class="fil2" d="M3711.55 2207.64c55.71,67.3 115.12,109.27 178.25,126.32 62.74,17.45 116.73,7.35 161.19,-29.92 44.86,-37.26 64.34,-88.36 58.43,-153.65 -5.9,-65.3 -36.32,-131.2 -91.63,-197.71 -54.92,-66.13 -114.33,-107.72 -177.46,-125.55 -63.53,-17.83 -117.52,-8.12 -162.37,29.14 -44.47,37.27 -63.94,88.36 -58.43,153.66 5.91,65.69 36.71,131.2 92.02,197.71zm-280.34 234.95c-104.35,-125.67 -149.25,-262.66 -134.74,-412.11 14.51,-149.45 84.4,-276.35 209.68,-381.07 126.06,-104.75 264.2,-151.22 413.64,-138.66 149.83,12.57 277.12,81.3 381.45,206.57 104.34,125.29 149.64,263.05 135.14,412.89 -14.51,149.84 -84.79,277.53 -210.85,382.26 -124.89,104.34 -262.65,150.03 -412.48,137.08 -150.22,-12.56 -277.5,-81.68 -381.84,-206.96z"/>
   <path class="fil2" d="M1808.41 4902.06l-361.48 -198.52 -71.59 130.88 -236.06 -129.25 71.6 -130.88 -270.34 -148.2 132.83 -343.81 313.19 171.82 116.49 -212.69 236.05 129.25 -116.48 212.68 382.91 210.13c81.02,44.5 146.02,65.71 194.25,63.63 48.61,-1.69 104.56,-24.78 168.61,-68.53l-170.1 369.57c-45.82,33.19 -95.17,46.94 -147.3,41.64 -52.13,-5.3 -133.11,-37.75 -242.58,-97.73z"/>
   <path id="_1_0" class="fil2" d="M2625.57 4193.08l-196.46 300.22 -858.4 -560.94 182.63 -279.11 153.94 92.57c-38.29,-74.39 -55.93,-143.48 -53.31,-207.68 2.62,-64.59 26.62,-130.89 71.6,-200.07l15.77 -23.85 321.31 209.92 -20.75 31.66 -21.92 33.62c-61.13,93.81 -91.71,163.66 -91.75,209.95 0.35,46.28 41.17,95.76 122.47,148.81l374.86 244.9z"/>
   <path id="_2_1" class="fil2" d="M1725.58 3051.64c-42.52,-34.55 -66.69,-78.3 -72.51,-131.62 -5.43,-53.34 8.94,-101.07 43.11,-143.58 34.55,-42.91 78.3,-67.08 131.23,-72.52 52.56,-5.82 100.67,8.94 143.58,43.89 42.52,34.17 67.08,78.3 73.28,132.02 6.2,53.72 -7.78,101.85 -41.94,143.98 -33.38,41.36 -77.52,64.75 -132,70.17 -54.5,5.41 -103.01,-8.57 -144.75,-42.34zm1331.89 592.83l-226.96 280.65 -799.02 -645.55 188.29 -311.66 837.68 676.56z"/>
   <path id="_3_2" class="fil2" d="M3136.4 3154.29c22.45,-14.17 41.03,-26.38 55.34,-37.38 14.3,-10.61 26.28,-21.59 36.31,-31.78 47.45,-50.93 66.43,-112.53 56.93,-185.57 -9.51,-73.05 -45.79,-139.28 -109.66,-199.08 -57.19,-53.63 -116.94,-83.12 -178.8,-87.71 -61.49,-4.59 -113.46,15.65 -155.88,61.09 -11.97,12.54 -23.11,30.92 -33.43,54.71 -10.32,23.81 -20.2,53.84 -28.88,89.69l358.07 336.04zm-36.18 456.51l-1221.12 -1145.06 208.95 -294.48 504.98 473.77c14.01,-49.51 31.18,-93.2 51.49,-132.24 20.32,-38.67 43.8,-72.3 70.81,-100.89 95.29,-101.87 208.49,-150.18 339.99,-145.73 131.5,4.82 255.24,61.84 371.59,171.01 122.61,114.98 186.62,245.56 192.02,390.98 4.99,145.42 -49.99,279.26 -164.57,401.48 -14.27,15.67 -31.65,32.13 -51.74,49.79 -20.09,17.66 -43.28,36.9 -69.97,57.72l-110.67 74.36 -121.76 199.29z"/>
   <path id="_4_3" class="fil2" d="M3711.55 2207.64c55.71,67.3 115.12,109.27 178.25,126.32 62.74,17.45 116.73,7.35 161.19,-29.92 44.86,-37.26 64.34,-88.36 58.43,-153.65 -5.9,-65.3 -36.32,-131.2 -91.63,-197.71 -54.92,-66.13 -114.33,-107.72 -177.46,-125.55 -63.53,-17.83 -117.52,-8.12 -162.37,29.14 -44.47,37.27 -63.94,88.36 -58.43,153.66 5.91,65.69 36.71,131.2 92.02,197.71zm-280.34 234.95c-104.35,-125.67 -149.25,-262.66 -134.74,-412.11 14.51,-149.45 84.4,-276.35 209.68,-381.07 126.06,-104.75 264.2,-151.22 413.64,-138.66 149.83,12.57 277.12,81.3 381.45,206.57 104.34,125.29 149.64,263.05 135.14,412.89 -14.51,149.84 -84.79,277.53 -210.85,382.26 -124.89,104.34 -262.65,150.03 -412.48,137.08 -150.22,-12.56 -277.5,-81.68 -381.84,-206.96z"/>
   <path class="fil3" d="M13903.75 9738l46.38 -83.72c12.45,-19.23 30.55,-39.59 50.91,-61.08 21.49,-20.37 44.12,-74.67 67.88,-161.76 23.75,-87.11 50.9,-148.18 81.45,-180.99 29.41,-32.81 72.4,-49.78 130.08,-49.78 32.8,0 76.92,15.84 131.21,47.52 53.17,32.8 106.34,128.95 158.37,290.72 52.04,160.62 76.92,274.88 76.92,340.49 0,27.15 7.92,61.09 23.76,101.81 15.84,40.73 24.89,72.4 29.41,93.9 -16.97,38.46 -26.02,58.82 -26.02,63.35l6.79 135.74 -39.59 109.73 0 79.19c-27.15,44.11 -40.73,71.26 -40.73,82.58 0,13.57 4.53,27.15 13.58,39.59 104.07,-44.12 167.41,-79.19 188.9,-107.47 22.63,-27.15 44.12,-44.12 65.62,-50.9 20.36,-6.79 55.43,-35.07 104.07,-85.98l63.35 -33.94c22.63,-26.01 40.73,-49.77 56.56,-71.26 15.84,-20.37 33.94,-35.07 55.43,-44.12 20.37,-9.05 45.25,-24.89 74.67,-46.38 28.28,-22.63 71.27,-47.52 125.56,-76.93l33.93 -39.59c32.81,-37.33 72.4,-66.75 117.65,-89.37 45.25,-21.5 70.14,-32.81 74.66,-32.81 15.84,0 31.68,20.36 48.65,61.09 16.97,40.72 24.89,81.45 24.89,121.03 0,37.33 -21.5,74.67 -64.49,110.87 -42.98,36.2 -72.39,63.35 -88.23,81.45 -15.84,18.09 -50.91,32.8 -106.34,46.38 -4.52,2.26 -40.72,47.51 -108.6,135.74l-66.74 39.59 -32.81 42.99c-4.52,9.05 -35.07,18.1 -89.37,27.15 -2.26,0 -7.92,10.18 -15.83,32.8 -7.92,21.5 -31.68,37.33 -71.27,46.38 -79.19,72.4 -119.91,114.26 -122.17,122.17l-70.14 13.57c-12.44,41.86 -23.75,67.88 -32.8,75.8 -53.17,13.57 -82.58,36.2 -89.37,66.74 -6.79,4.53 -18.1,9.05 -33.94,13.58l-12.44 10.18c-50.91,39.59 -100.68,63.35 -149.32,72.4l-76.92 20.36 -26.02 39.59c0,10.18 -27.15,24.89 -81.45,42.99 -54.3,16.97 -93.89,39.59 -121.03,65.61l-56.56 42.99c-67.88,27.15 -110.87,50.91 -128.96,73.53l-46.38 0c-30.54,0 -79.19,22.63 -145.92,67.88 -66.74,45.25 -119.9,67.87 -159.49,67.87 -127.83,0 -216.06,-15.84 -263.58,-47.51 -47.51,-32.81 -87.1,-72.4 -117.64,-119.9 -30.55,-47.52 -58.83,-84.85 -84.85,-114.26 -24.89,-28.28 -37.33,-52.04 -37.33,-69.01 0,-15.83 10.18,-30.54 30.54,-46.38 21.5,-15.83 44.12,-47.51 69.01,-95.02 23.76,-46.38 85.98,-76.93 185.51,-90.5 4.53,0 20.37,-6.79 48.65,-20.36 27.15,-12.45 49.77,-19.24 67.87,-19.24 21.5,0 49.78,19.24 82.58,59.96 0,3.39 4.53,5.66 13.58,5.66l53.17 -5.66c23.75,16.97 40.72,26.02 49.77,26.02 53.17,0 109.73,-26.02 168.55,-79.19l13.57 -6.79 27.15 0c6.79,0 16.97,-19.23 32.81,-56.56l56.56 -116.52 116.52 -148.18 0 -33.94c0,-6.78 5.66,-26.02 19.23,-59.95l0 -48.65c0,-20.36 13.58,-32.8 39.6,-38.46 27.14,-5.66 40.72,-19.23 40.72,-41.85l-6.79 -26.02c-18.1,-24.89 -27.15,-42.99 -27.15,-56.57l33.94 -66.74 -6.79 -69.01 13.58 -27.15c-9.05,-30.54 -13.58,-48.64 -13.58,-53.16l13.58 -82.59c0,-2.26 -6.79,-22.62 -19.23,-63.34 -11.32,-39.6 -21.5,-58.83 -28.28,-58.83 -12.45,0 -54.3,33.94 -125.56,102.94 -70.14,67.88 -112,116.52 -125.56,145.92 -13.58,28.29 -41.86,54.3 -84.85,76.93 -42.98,23.76 -72.4,49.77 -87.1,78.06 -15.84,29.41 -35.07,45.25 -56.56,49.77l-222.85 178.73 -240.94 179.86c-18.1,19.23 -29.42,29.41 -33.94,29.41 -81.45,0 -122.17,-45.25 -122.17,-135.74 0,-29.41 16.97,-80.32 49.78,-156.1 15.84,-9.05 27.15,-14.71 35.07,-19.24 6.78,-4.52 11.31,-7.91 11.31,-10.18 0,-2.26 -2.26,-3.39 -6.79,-3.39l19.23 13.57 6.79 0c81.45,-55.43 134.61,-88.23 159.5,-96.15 23.75,-9.05 46.38,-33.94 65.61,-73.53l139.13 -99.55c35.07,-26.02 89.37,-74.66 161.76,-145.92 72.4,-70.14 118.78,-122.17 139.13,-154.97z"/>
   <path id="_1_4" class="fil3" d="M17683.08 10515.13l0 37.33 6.79 26.02 0 13.58c0,4.52 -4.52,29.41 -13.57,75.79 -32.81,35.07 -52.04,84.84 -56.57,149.32l-39.59 59.95c0,30.55 -10.18,55.43 -31.67,72.4 -20.37,18.1 -38.47,53.17 -54.3,106.34 -15.84,53.17 -33.94,109.73 -56.57,168.54l-75.79 188.91c0,9.05 4.52,13.58 13.57,13.58 4.53,0 11.32,-2.26 21.5,-6.79 9.05,-4.52 19.23,-6.79 28.28,-6.79 7.92,0 16.97,2.27 26.02,6.79 9.05,4.53 15.84,6.79 19.23,6.79 4.52,0 20.36,-7.92 48.64,-22.63 27.15,-15.83 58.83,-26.02 93.9,-30.54l122.16 -29.41c26.02,-9.05 80.32,-13.58 161.76,-13.58l101.81 -6.79c81.45,0 164.02,21.5 245.47,63.35 82.58,41.86 134.61,85.98 154.97,132.35 21.5,46.38 31.68,122.16 31.68,225.11 0,82.58 -27.15,123.29 -82.58,123.29 -32.81,0 -75.8,-21.49 -126.69,-63.35 -52.04,-41.85 -88.24,-95.02 -107.47,-158.36 -20.36,-64.48 -52.04,-96.16 -96.16,-96.16l-82.58 -27.15 -46.38 13.58 -13.57 0c-7.92,0 -28.29,-6.79 -58.83,-20.36l-10.18 0 -99.55 27.15 -134.61 0 -63.35 32.8c-30.54,9.05 -64.48,15.84 -100.68,20.36 -36.2,4.53 -69,12.45 -97.29,26.02 -29.41,13.58 -42.98,26.02 -42.98,36.2 0,69.01 -30.55,127.82 -89.37,176.47 -22.63,35.07 -33.94,63.35 -36.2,83.71 -2.26,21.49 -14.71,44.12 -38.46,70.14 -22.63,24.88 -47.52,64.48 -74.67,117.65l-26.02 46.38c-9.05,13.57 -13.57,23.75 -13.57,32.8 0,4.53 2.26,13.58 6.79,27.15l0 29.42c0,62.22 -36.2,119.9 -108.6,175.33l0 33.94c0,16.97 -18.1,42.98 -53.17,75.79l13.57 66.74c0,7.92 -12.44,27.15 -37.33,54.3 -23.75,27.15 -44.12,58.83 -61.08,92.77 -16.97,33.93 -47.52,64.48 -93.9,91.63l0 19.23 19.23 39.59c6.79,0 10.18,4.53 10.18,13.58 0,15.83 -16.96,38.46 -49.77,70.13 -9.05,35.07 -24.89,69.01 -46.38,102.95l-135.74 182.12c-22.63,30.54 -33.94,55.43 -33.94,72.4l-22.62 63.35c-24.89,19.23 -41.86,39.59 -52.04,61.09 -9.05,21.49 -38.46,62.21 -87.11,124.42 -48.64,62.22 -81.45,92.77 -96.15,92.77 13.57,26.01 19.23,41.85 19.23,46.38 0,26.01 -16.97,58.82 -53.17,96.15 -56.56,0 -85.97,12.45 -85.97,36.2l16.96 66.75c0,9.05 -12.44,21.49 -36.2,39.59 -24.88,18.1 -44.11,26.02 -59.95,26.02l-46.38 0 13.57 59.95c-9.05,24.89 -22.62,40.73 -40.72,49.78 -16.97,9.05 -46.38,35.07 -87.11,78.05 -40.72,42.99 -70.14,69.01 -88.24,78.06l-42.98 26.02 -128.96 13.57c-36.2,-11.31 -104.07,-47.51 -204.74,-109.73 -100.68,-61.08 -157.23,-119.9 -171.94,-174.2 -14.71,-53.17 -21.49,-130.08 -21.49,-229.63 0,-11.31 11.31,-30.55 32.8,-56.56l6.79 -26.02 0 -63.35c0,-4.53 11.31,-44.12 32.8,-117.65 22.63,-74.66 41.86,-115.39 56.57,-123.3 15.83,-6.79 39.59,-50.9 73.53,-130.08 32.8,-80.32 57.69,-132.35 75.79,-156.1l304.3 -447.96c0,-28.28 4.52,-47.51 13.57,-55.43l20.36 0c16.97,0 29.42,-6.79 36.2,-19.23 6.79,-11.31 15.84,-26.02 29.42,-40.72 0,-41.86 19.23,-76.93 57.69,-102.95 39.59,-27.15 66.74,-55.43 83.71,-88.23 15.84,-31.68 35.07,-61.09 57.7,-87.11l6.78 -20.36c9.05,-9.05 28.28,-19.23 57.7,-31.68 29.41,-12.44 46.38,-29.41 50.9,-50.9l113.13 -109.74c11.31,-9.05 28.28,-20.36 53.17,-32.8 23.75,-13.58 49.77,-37.33 75.79,-73.53l22.63 -9.05 20.36 0 13.57 -6.79c26.02,-57.69 53.17,-88.24 80.32,-92.76 28.28,-4.53 46.38,-11.31 55.43,-20.36 -2.26,-69.01 36.2,-102.95 115.39,-102.95 18.1,0 31.67,-4.52 39.59,-13.57l80.32 -62.22c10.18,-9.05 31.68,-52.04 62.22,-130.08l0 -5.66 59.96 15.84 6.78 -15.84 -13.57 -73.53c6.79,-9.05 20.36,-39.6 39.59,-90.5 20.36,-52.04 38.46,-82.58 56.56,-91.63 18.1,-9.05 27.15,-19.23 27.15,-29.42l0 -40.72 -6.78 -39.59 12.44 -26.02 0 -42.99 6.79 -13.57c11.31,-11.32 24.89,-52.04 39.59,-123.3 9.05,-7.92 21.5,-16.97 37.33,-26.02l148.19 -420.8c4.52,-11.32 11.31,-39.6 20.36,-85.98l26.02 -37.33c27.15,-70.14 40.72,-115.39 40.72,-135.74 0,-9.05 -4.52,-12.44 -13.57,-12.44 -9.05,0 -29.41,12.44 -59.96,37.33 -30.54,26.02 -54.3,38.46 -69,38.46l-53.17 -13.57 -13.58 0c-13.57,0 -31.67,11.31 -54.3,33.93 -23.75,21.5 -37.33,32.81 -41.85,32.81l-39.6 6.79c-22.62,37.33 -41.85,58.82 -59.95,63.35l-82.58 53.17 -6.79 0 -46.38 -33.94c0,-4.53 -5.66,-6.79 -16.97,-6.79 -9.05,0 -22.63,27.15 -39.6,80.32l-102.94 49.77c-22.62,-4.52 -36.2,-6.78 -40.72,-6.78 -21.5,0 -42.99,20.36 -63.35,61.08 -19.24,41.86 -46.39,64.49 -79.19,69.01 -18.1,19.23 -58.83,35.07 -123.3,46.38l-195.69 135.74c-22.63,9.05 -38.47,20.36 -47.52,32.81 -46.38,4.52 -89.36,30.54 -128.95,76.92l-90.5 -6.79c-21.49,0 -42.98,14.71 -64.48,42.99 -21.49,29.41 -42.99,42.99 -64.48,42.99l-20.36 0 -39.6 -6.79 -109.73 27.15c-31.67,0 -79.18,-23.75 -143.65,-71.27 -64.49,-47.51 -96.16,-89.37 -96.16,-124.42l-20.36 -149.32c0,-4.52 9.05,-19.23 27.15,-46.38 18.1,-26.02 26.02,-45.25 26.02,-55.43 0,-4.53 -2.27,-13.58 -6.79,-27.15l0 -26.02c0,-78.06 28.28,-170.81 83.71,-278.28l0 -13.57c0,-9.05 -6.79,-13.58 -20.36,-13.58 -28.28,0 -53.17,23.76 -72.4,71.27 -20.36,47.51 -42.99,81.45 -69.01,100.68 -26.02,20.37 -45.25,37.33 -57.69,49.78 -11.31,13.57 -21.5,20.36 -30.55,20.36 -13.57,-9.05 -28.28,-15.84 -46.38,-20.36 -3.39,-4.53 -11.31,-16.97 -22.62,-39.6 -10.18,-21.49 -27.15,-40.72 -50.91,-54.3 -22.62,-14.7 -33.93,-39.59 -33.93,-74.66 0,-24.88 31.67,-56.56 96.15,-97.28l39.59 -39.6c100.69,-101.81 169.68,-156.1 204.75,-162.89l19.23 -46.38c31.68,-23.76 69.01,-57.69 114.26,-101.81 45.25,-42.99 85.97,-73.53 121.03,-90.5l178.73 -156.1c53.17,-48.65 125.56,-73.53 218.32,-73.53 71.27,0 106.34,45.25 106.34,135.74 0,91.63 -15.84,161.75 -47.52,211.53 -32.8,49.77 -52.03,95.02 -59.95,135.74 -7.92,40.72 -37.33,95.02 -88.24,162.89 -50.91,67.87 -81.45,117.65 -92.76,149.31 -11.31,32.81 -33.94,76.93 -67.88,133.48 -33.93,56.56 -50.9,106.34 -50.9,150.45 0,22.62 12.44,33.93 39.59,33.93 37.33,0 84.84,-20.36 142.53,-59.95l30.54 -13.58c21.5,-9.05 44.12,-20.36 66.75,-32.8l82.58 -37.34c15.83,-32.8 39.59,-54.3 73.53,-65.61l63.35 -33.94c30.54,-12.44 69,-30.54 114.25,-50.9 45.25,-21.5 74.67,-41.86 88.24,-61.09 13.58,-20.36 30.54,-36.2 52.04,-48.64 20.36,-12.45 44.12,-31.68 71.27,-57.7 57.69,0 136.87,-49.77 238.68,-149.31 102.94,-59.96 197.96,-118.78 286.19,-177.6 89.37,-58.82 148.19,-101.81 176.47,-127.82 13.57,-9.05 37.33,-21.49 71.27,-37.33 35.07,-14.7 73.53,-39.59 116.52,-74.66 42.98,-33.94 97.28,-50.91 164.02,-50.91 57.69,0 113.12,21.5 166.28,64.48 52.04,42.99 79.19,85.98 79.19,127.83l-6.79 159.49c0,100.68 -27.15,187.78 -82.58,257.92 -13.58,88.23 -29.41,149.31 -46.38,182.12l6.79 76.92c0,12.44 -24.89,35.07 -73.54,65.61zm-1572.36 2538.41l15.84 -46.38c4.52,-14.71 20.36,-30.54 46.38,-46.38 22.62,-95.03 52.04,-156.1 89.37,-185.52 0,-48.64 2.26,-75.79 6.79,-82.58l46.38 -42.98 128.95 -218.32c13.57,-31.68 27.15,-59.96 42.99,-88.24 15.83,-27.15 27.15,-54.3 36.2,-81.45 0,-30.55 36.2,-91.63 109.73,-182.12l0 -22.63c0,-30.54 -6.79,-46.38 -20.37,-46.38 -12.44,15.84 -35.06,30.54 -65.61,46.38l-211.53 178.73c-11.31,9.05 -41.86,44.12 -89.37,106.34l-63.35 65.61c-35.07,37.33 -62.22,61.09 -81.45,71.27 -18.1,10.18 -41.86,41.85 -69,96.15 -27.15,54.3 -50.91,81.45 -71.27,81.45l-13.58 0c-2.26,0 -12.44,-5.65 -32.8,-16.97 -13.58,6.79 -19.24,16.97 -19.24,30.55l19.24 79.19c0,9.05 -9.05,22.62 -26.02,41.85 -18.1,18.1 -32.81,38.46 -45.25,61.09 -12.45,21.49 -24.89,35.07 -37.33,39.59 -13.58,4.53 -38.47,45.25 -73.54,122.17l-62.21 33.93c-6.79,130.09 -47.52,234.16 -123.3,314.48 -16.97,35.07 -31.67,70.14 -42.99,104.08 -11.31,33.93 -20.36,55.43 -29.41,64.48 -13.57,81.45 -36.2,128.95 -70.14,142.52 -7.92,4.53 -12.44,11.32 -12.44,20.37 0,12.44 9.05,26.02 29.41,39.59l13.58 12.44c-29.42,87.11 -42.99,150.45 -42.99,192.31 0,9.05 4.52,13.57 12.44,13.57l99.55 -49.77c71.27,-32.81 118.78,-74.67 142.53,-125.56l53.17 -102.95c9.05,-13.57 23.75,-22.62 46.38,-26.01 13.57,-46.39 35.07,-76.93 64.48,-90.5 29.41,-12.45 44.12,-30.55 44.12,-52.04 0,-22.63 41.86,-98.42 124.43,-228.5 82.58,-131.22 126.69,-204.75 131.21,-222.85z"/>
   <path id="_2_5" class="fil3" d="M21206.77 10668.97l13.57 0 32.81 12.45c4.52,0 9.05,-2.27 13.57,-6.79 0,-37.33 16.97,-69.01 53.17,-95.03 11.31,-41.85 36.2,-74.66 74.66,-96.15 38.47,-22.63 99.55,-58.83 184.39,-109.73l82.58 -72.4 39.59 -20.36 27.15 -32.81c23.76,-28.28 47.51,-42.99 70.14,-42.99 32.8,0 49.77,12.45 49.77,36.2l-30.54 66.74 13.57 108.6c0,39.6 -13.57,75.8 -41.85,106.34 -27.15,30.55 -70.14,75.8 -126.69,135.74l-169.68 178.73 -89.37 46.38c-21.49,13.57 -41.85,28.28 -59.95,46.38l-128.95 109.73c0,30.55 -10.19,53.17 -29.42,69.01l-53.17 0 -27.15 13.57c-14.7,41.86 -59.95,82.58 -135.74,122.17l-46.38 32.8c-14.7,13.58 -29.41,20.37 -42.98,20.37l-92.77 -13.58 -63.35 13.58c-16.96,0 -40.72,-9.05 -71.26,-26.02 -29.42,-18.1 -59.96,-31.68 -90.5,-41.86 -30.55,-10.18 -70.14,-50.91 -117.65,-122.16 -47.52,-72.4 -73.53,-118.78 -78.06,-141.4 0,-9.05 -4.52,-23.76 -14.71,-44.12 -10.18,-21.49 -14.7,-33.94 -14.7,-38.46 0,-4.53 9.05,-26.02 29.41,-65.61l0 -6.79c0,-6.79 -5.66,-22.63 -18.1,-46.38 -12.44,-24.89 -18.1,-54.3 -18.1,-89.37 0,-20.36 -6.79,-45.25 -20.36,-76.92 18.1,-16.97 27.15,-30.55 27.15,-39.6 0,-9.05 -3.4,-21.49 -10.18,-37.33 -6.79,-16.97 -10.18,-29.41 -10.18,-38.46l20.36 -161.76 -13.58 -83.71 6.79 -79.19c0,-46.38 -20.36,-69.01 -59.96,-69.01 -16.96,0 -39.59,11.32 -65.61,36.2l-22.62 6.79c-59.96,28.28 -101.82,52.04 -125.56,71.27 -24.89,18.1 -49.78,28.28 -75.79,28.28 -13.58,12.45 -38.47,24.89 -76.93,36.2l-26.02 19.23c-9.05,9.05 -26.02,22.63 -53.17,39.6 0,6.78 -40.72,44.11 -123.29,110.86 -82.58,67.87 -157.24,131.21 -222.85,191.17 -65.61,58.82 -114.25,91.63 -143.66,97.29 -29.41,5.65 -44.12,33.93 -44.12,84.84 0,7.92 -20.36,26.02 -59.95,53.17 -4.53,0 -27.15,23.75 -69.01,72.4 -35.07,-26.02 -55.43,-39.6 -59.95,-39.6 -28.28,0 -49.78,36.2 -62.22,108.6 -13.58,29.42 -48.65,46.39 -106.34,53.17 -4.52,2.27 -12.44,19.23 -23.76,49.78l-13.57 13.57 -32.81 0c-4.52,0 -20.36,12.45 -46.38,37.33 -27.15,26.02 -49.77,41.86 -70.14,48.65 -28.28,59.95 -53.16,89.37 -73.53,89.37 -7.91,0 -21.49,-4.53 -37.33,-13.58 -16.97,-9.05 -37.33,-16.97 -62.22,-22.62 -23.75,-6.79 -50.9,-33.94 -80.31,-82.59 -30.55,-47.51 -45.25,-88.23 -45.25,-121.03 0,-247.73 47.51,-382.34 142.52,-403.83l6.79 -13.58 0 -27.15c0,-28.28 12.44,-48.64 38.46,-61.09 24.89,-12.44 50.91,-37.33 76.93,-73.53 27.15,-36.2 44.12,-56.56 53.17,-61.08l42.98 0c9.05,0 13.58,-23.76 13.58,-70.14 0,-12.45 5.65,-24.89 16.97,-36.2 10.18,-11.31 16.97,-27.15 19.23,-47.51 2.26,-21.5 18.1,-55.43 48.64,-102.95 29.41,-47.51 44.12,-75.79 44.12,-84.84l-6.79 -13.58c-54.3,50.91 -95.02,79.19 -118.78,83.72 -23.75,3.39 -57.69,36.2 -99.55,96.15l-53.17 -10.18c-92.76,67.88 -150.44,106.34 -173.07,115.39 -21.49,9.05 -46.38,35.07 -72.4,76.92 0,12.45 -7.92,21.5 -23.75,26.02 -15.84,4.53 -44.12,22.63 -87.11,53.17l-19.23 0c-55.43,0 -83.71,-39.59 -83.71,-118.78l69 -188.91c20.37,-58.82 66.75,-109.73 141.4,-150.44 73.53,-40.73 135.74,-79.19 186.65,-117.65 50.9,-37.34 101.81,-56.57 152.7,-58.83l22.63 -32.8c74.66,-29.42 125.56,-74.67 152.71,-135.74 26.02,-62.22 62.22,-92.77 108.6,-92.77 121.03,0 213.79,45.25 278.27,136.87 64.48,90.5 96.16,161.76 96.16,214.93l6.79 89.37c0,31.67 -6.79,74.66 -20.37,130.08 -26.01,39.6 -39.59,69.01 -39.59,89.37 0,16.97 11.31,26.02 32.81,26.02 13.57,0 31.67,-9.05 53.17,-28.28 22.62,-18.1 47.51,-35.07 74.66,-50.91 27.15,-15.83 42.99,-28.28 47.51,-39.59 22.62,-53.17 61.09,-89.37 116.52,-109.73 54.3,-19.23 89.37,-36.2 101.81,-49.78l33.94 -26.02 26.02 -49.77c59.95,-27.15 99.55,-50.91 118.78,-73.53 20.36,-21.49 46.38,-36.2 80.32,-42.99 32.8,-6.79 70.13,-26.02 111.99,-58.82l49.77 -13.58 46.39 -27.15c4.52,-4.52 16.96,-9.05 39.59,-15.84 21.49,-6.78 54.3,-18.1 97.29,-35.06 42.98,-16.97 72.4,-24.89 88.23,-24.89 112,0 201.36,45.25 265.84,135.74 65.61,90.5 98.42,162.89 98.42,218.32l-6.79 59.95 12.44 89.37 0 13.58 -26.02 182.12 6.79 62.22c0,104.07 -22.62,175.33 -66.74,216.06 -11.32,3.39 -15.84,14.7 -15.84,32.8l0 29.41 65.61 139.14c20.36,48.64 35.07,72.4 46.38,72.4l106.34 -29.42c31.67,-9.05 56.56,-31.67 76.92,-69 18.1,-9.05 48.65,-36.2 92.77,-80.32 13.57,-35.07 33.93,-52.04 63.35,-52.04z"/>
   <path id="_3_6" class="fil3" d="M22094.75 10359.03l0 -33.94c0,-21.49 22.63,-69 66.75,-142.52 44.12,-72.4 93.89,-119.91 151.57,-142.53 4.53,0 6.79,-1.13 6.79,-5.66l-6.79 -53.17c9.05,-9.05 30.55,-37.33 66.75,-85.97 35.07,-48.64 69,-70.14 101.81,-63.35 24.89,-35.07 55.43,-64.48 92.76,-88.24 37.33,-22.62 72.4,-53.17 102.94,-90.5l122.17 -76.92c85.97,-56.56 149.31,-85.98 188.91,-85.98l49.77 0c26.02,-44.12 61.09,-65.61 105.21,-65.61 41.85,0 70.14,6.79 82.58,19.23 4.52,4.53 9.05,6.79 13.57,6.79 2.27,0 15.84,-9.05 39.6,-26.02 24.89,-18.1 54.3,-27.15 89.37,-27.15 9.05,0 58.82,18.1 149.31,53.17 26.02,-26.02 52.04,-39.59 75.79,-39.59 9.05,0 24.89,6.78 46.39,20.36 22.62,13.57 45.25,24.89 67.87,35.07 23.76,10.18 46.38,50.9 67.88,123.29 22.62,72.4 32.8,113.13 32.8,121.04 0,36.2 -28.28,78.05 -87.1,125.56 -58.83,47.51 -113.13,71.26 -164.03,71.26 -16.96,0 -39.59,-15.83 -65.61,-46.38 -66.74,-13.57 -123.29,-29.41 -168.54,-49.77 -62.22,13.57 -109.73,29.41 -142.53,49.77l-6.79 0 -29.41 -27.15 -27.15 -5.65 -6.79 0c-5.65,7.92 -14.7,23.75 -26.02,46.38 -35.06,23.75 -65.61,39.59 -90.5,47.51 -26.01,7.92 -46.38,20.36 -62.21,36.2 -14.71,16.97 -40.73,33.94 -76.93,52.04 -36.2,16.97 -63.35,41.85 -81.45,72.4 -44.12,23.75 -75.79,38.46 -96.16,42.98l-19.23 0c-18.1,35.07 -58.82,93.9 -122.16,175.34l-85.98 142.52c-20.36,16.97 -44.11,37.34 -73.53,61.09 -28.28,22.63 -42.98,42.99 -42.98,61.09 0,4.52 2.26,15.84 6.78,32.81l0 33.93c0,12.45 -10.18,28.28 -31.67,47.52 -20.36,19.23 -31.68,32.8 -31.68,41.85l6.79 72.4 -26.02 115.39c0,69 49.78,102.94 149.32,102.94l48.64 0 142.53 -23.75c46.38,-5.66 85.97,-12.45 116.52,-19.24 30.54,-6.78 48.64,-10.18 53.16,-10.18 4.53,0 21.5,-12.44 53.17,-36.2l32.81 0 29.41 -6.78c9.05,-46.39 72.4,-84.85 188.91,-116.52 27.15,-39.6 71.27,-67.88 134.61,-87.11 63.35,-19.23 126.69,-58.82 191.17,-121.03l49.77 0c5.66,0 27.15,-12.45 61.09,-38.46 33.94,-24.89 69.01,-45.25 106.34,-61.09 36.2,-15.84 58.82,-28.28 67.87,-39.6 7.92,-11.31 24.89,-21.49 49.78,-29.41 39.59,-62.22 87.1,-100.68 142.53,-116.52l12.44 -13.57c36.2,-30.54 57.69,-46.38 66.74,-46.38l39.6 6.79c22.62,0 36.2,-13.58 41.85,-40.73 5.66,-28.28 40.73,-65.61 105.21,-113.12 65.61,-47.52 107.47,-71.27 124.43,-71.27 41.85,0 63.35,21.49 63.35,65.61 0,33.94 -19.24,52.04 -56.57,56.56 24.89,57.7 36.2,89.37 36.2,96.16 0,72.4 -36.2,119.9 -108.6,142.52 -9.05,4.53 -13.57,11.32 -13.57,19.24l-6.79 59.95c2.26,0 2.26,2.26 0,5.66 -2.26,2.26 -6.79,7.92 -13.57,14.7l-48.65 6.79 -13.57 19.23c-48.65,27.15 -105.21,72.4 -169.68,135.74l-65.61 70.14 -10.18 0c-22.63,-22.62 -39.6,-33.94 -53.17,-33.94 -9.05,0 -20.36,15.84 -32.81,46.38 -75.79,75.8 -130.08,118.78 -162.89,128.96 -13.57,4.52 -36.2,22.62 -69,53.16l-66.75 42.99 -49.77 0c-6.79,6.79 -12.45,15.84 -18.1,28.28 -5.66,12.45 -24.89,30.55 -57.7,54.3 -33.93,24.89 -57.69,46.38 -71.26,64.48 -14.71,19.24 -35.07,32.81 -62.22,41.86l-58.83 -13.57c-20.36,36.19 -56.56,53.16 -109.73,53.16 -13.57,9.05 -32.8,26.02 -57.69,50.91 -26.02,26.02 -42.99,38.46 -52.04,38.46 -7.92,0 -31.67,-13.57 -69.01,-39.59l-6.78 0c-22.63,0 -32.81,16.97 -32.81,49.77 0,32.81 -20.36,50.91 -62.22,53.17 -40.72,2.26 -78.05,12.45 -114.25,32.81l-6.79 0c-49.78,0 -87.11,-9.05 -108.6,-28.28 -22.63,-18.1 -41.86,-32.81 -59.96,-41.86 -69,22.63 -105.2,33.94 -109.73,33.94 -26.02,0 -52.04,-11.31 -75.79,-33.94l-142.53 -72.4c-9.05,-6.79 -24.89,-36.2 -46.38,-89.37l-20.36 -26.02c-70.14,-13.57 -117.65,-87.1 -142.53,-219.45l-26.02 -79.19c-4.52,-4.52 -6.79,-14.7 -6.79,-29.41 0,-22.62 9.05,-56.56 26.02,-101.81 18.1,-45.25 36.2,-105.21 53.17,-182.12 18.1,-75.79 54.3,-124.43 109.73,-143.66z"/>
   <path class="fil2" d="M18189.4 12303.88l-21.26 108.97c-125.79,-38.98 -236.54,-58.47 -332.22,-58.47 -212.61,0 -318.92,82.39 -318.92,247.17 0,42.52 7.97,79.73 23.92,111.62 15.95,31.9 42.52,58.92 79.73,81.07 37.21,22.14 68.66,38.53 94.35,49.16 25.7,10.64 66.01,24.81 120.92,42.53 155.92,47.84 269.32,99.22 340.19,154.14 70.88,54.93 106.31,133.77 106.31,236.53 0,118.72 -43.85,208.63 -131.55,269.76 -87.71,61.13 -201.54,91.69 -341.51,91.69 -77.97,0 -159.46,-8.41 -244.51,-25.25 -85.05,-16.83 -147.06,-34.1 -186.04,-51.82l26.58 -111.63c141.74,49.61 276.4,74.42 403.97,74.42 106.31,0 190.02,-21.26 251.15,-63.79 61.13,-42.52 91.69,-103.65 91.69,-183.38 0,-72.64 -29.23,-128.45 -87.71,-167.43 -58.47,-38.98 -154.14,-78.84 -287.03,-119.59 -122.25,-38.98 -217.48,-86.38 -285.7,-142.18 -68.22,-55.81 -102.32,-136.87 -102.32,-243.18 0,-116.94 38.53,-206.41 115.61,-268.42 77.07,-62.02 186.48,-93.03 328.23,-93.03 139.96,0 258.68,20.38 356.13,61.13z"/>
   <path id="_1_7" class="fil2" d="M18899.44 12354.38c-138.2,0 -247.61,45.63 -328.23,136.87 -80.62,91.25 -127.12,213.05 -139.53,365.42l869.06 0c1.77,-14.17 2.66,-33.66 2.66,-58.47 0,-124.02 -33.22,-229 -99.67,-314.94 -66.44,-85.93 -167.87,-128.89 -304.3,-128.89zm523.56 1187.98c-129.34,63.79 -277.29,95.68 -443.83,95.68 -210.84,0 -376.5,-60.24 -496.99,-180.72 -120.47,-120.47 -180.72,-294.11 -180.72,-520.9 0,-205.53 53.16,-372.52 159.46,-500.98 106.31,-128.45 252.48,-192.68 438.52,-192.68 170.08,0 301.2,54.05 393.33,162.12 92.14,108.08 138.19,244.51 138.19,409.28 0,47.84 -2.65,95.68 -7.97,143.51l-993.97 0c3.54,187.81 54.48,329.11 152.81,423.9 98.34,94.79 232.55,142.18 402.63,142.18 134.66,0 271.09,-30.12 409.28,-90.37l29.24 108.97z"/>
   <path id="_2_8" class="fil2" d="M20109.12 12205.55c154.14,0 290.57,27.47 409.28,82.4l-82.39 353.47c-101,-42.52 -196.67,-63.78 -287.03,-63.78 -85.05,0 -151.49,29.23 -199.33,87.7 -47.84,58.47 -71.76,139.97 -71.76,244.51 0,237.42 95.68,356.13 287.03,356.13 92.14,0 186.04,-21.26 281.72,-63.78l69.1 361.44c-102.77,49.61 -232.99,74.41 -390.67,74.41 -221.48,0 -394.67,-64.67 -519.58,-194.01 -124.91,-129.33 -187.37,-302.97 -187.37,-520.9 0,-217.93 61.58,-392.01 184.71,-522.24 123.13,-130.22 291.9,-195.34 506.29,-195.34z"/>
   <path id="_3_9" class="fil2" d="M21749.35 12920.47c0,217.93 -62.02,392 -186.04,522.24 -124.02,130.22 -291.46,195.33 -502.3,195.33 -210.84,0 -378.72,-65.11 -503.63,-195.33 -124.91,-130.23 -187.37,-304.31 -187.37,-522.24 0,-216.16 62.46,-389.35 187.37,-519.58 124.9,-130.22 292.79,-195.34 503.63,-195.34 210.84,0 378.27,65.12 502.3,195.34 124.02,130.22 186.04,303.42 186.04,519.58zm-858.43 -252.48c-40.75,60.24 -61.13,144.4 -61.13,252.48 0,108.08 20.38,192.68 61.13,253.81 40.75,61.13 97.45,91.69 170.09,91.69 72.65,0 128.89,-30.56 168.76,-91.69 39.87,-61.13 59.8,-145.73 59.8,-253.81 0,-108.08 -20.38,-192.24 -61.13,-252.48 -40.75,-60.24 -96.57,-90.36 -167.43,-90.36 -72.65,0 -129.34,30.12 -170.09,90.36z"/>
   <path id="_4_10" class="fil2" d="M22964.34 13531.73c-170.08,70.88 -357.02,106.31 -560.77,106.31 -235.65,0 -419.47,-62.45 -551.47,-187.36 -131.99,-124.91 -198,-292.79 -198,-503.63 0,-221.47 68.22,-400.42 204.64,-536.86 136.43,-136.42 313.61,-204.64 531.54,-204.64 40.75,0 81.51,2.66 122.25,7.98l0 -510.28 451.8 -21.26 0 1849.74zm-850.45 -608.6c0,228.56 95.68,342.84 287.03,342.84 44.3,0 81.51,-6.2 111.63,-18.6l0 -656.45c-38.98,-8.86 -70.87,-13.28 -95.68,-13.28 -201.98,0 -302.98,115.17 -302.98,345.5z"/>
   <path id="_5" class="fil2" d="M24096.95 13526.42c-161.23,74.41 -364.1,111.62 -608.61,111.62 -182.49,0 -322.46,-39.86 -419.91,-119.59 -97.45,-79.73 -146.17,-183.37 -146.17,-310.95 0,-125.79 48.73,-227.67 146.17,-305.63 97.46,-77.97 228.56,-116.95 393.34,-116.95 74.41,0 139.96,4.43 196.66,13.29l0 -21.26c0,-132.88 -77.07,-199.32 -231.22,-199.32 -131.1,0 -248.05,20.37 -350.81,61.12l-77.08 -350.81c139.97,-54.93 300.32,-82.4 481.04,-82.4 203.75,0 357.46,52.27 461.11,156.8 103.65,104.54 155.47,252.48 155.47,443.84l0 720.23zm-560.78 -207.3c51.39,0 92.14,-6.2 122.25,-18.61l0 -225.9c-47.84,-10.63 -92.13,-15.94 -132.88,-15.94 -46.07,0 -83.72,11.07 -112.95,33.22 -29.24,22.15 -43.86,54.48 -43.86,97.01 0,86.82 55.82,130.22 167.43,130.22z"/>
  </g>
 </g>
</svg>
